<mxfile host="app.diagrams.net" modified="2022-04-28T15:50:25.495Z" agent="5.0 (Macintosh; Intel Mac OS X 10_15_7) AppleWebKit/537.36 (KHTML, like Gecko) Chrome/101.0.4951.41 Safari/537.36" etag="Et3-vW2VzpUlMDW-RsCV" version="17.4.6" type="github">
  <diagram id="KBZqsJvVCmCM6evhnIGO" name="第 1 页">
    <mxGraphModel dx="946" dy="519" grid="0" gridSize="10" guides="1" tooltips="1" connect="1" arrows="1" fold="1" page="1" pageScale="1" pageWidth="827" pageHeight="1169" background="#4D4D4D" math="0" shadow="0">
      <root>
        <mxCell id="0" />
        <mxCell id="1" parent="0" />
        <mxCell id="cMtaiWoFjzHMu9E-Ogl5-14" value="" style="swimlane;horizontal=0;fillColor=#999900;swimlaneFillColor=#666666;shadow=0;gradientColor=none;strokeColor=none;" vertex="1" parent="1">
          <mxGeometry x="80" y="363" width="720" height="100" as="geometry" />
        </mxCell>
        <mxCell id="cMtaiWoFjzHMu9E-Ogl5-15" value="仓&lt;br&gt;储&lt;br&gt;部&lt;br&gt;门" style="text;html=1;strokeColor=none;fillColor=none;align=center;verticalAlign=middle;whiteSpace=wrap;rounded=0;fontSize=14;fontColor=#FFFFFF;" vertex="1" parent="cMtaiWoFjzHMu9E-Ogl5-14">
          <mxGeometry x="-20" y="40" width="60" height="30" as="geometry" />
        </mxCell>
        <mxCell id="cMtaiWoFjzHMu9E-Ogl5-31" value="" style="edgeStyle=orthogonalEdgeStyle;rounded=0;orthogonalLoop=1;jettySize=auto;html=1;fontSize=14;fontColor=#FFFFFF;strokeColor=#FFFFFF;" edge="1" parent="cMtaiWoFjzHMu9E-Ogl5-14" source="cMtaiWoFjzHMu9E-Ogl5-24" target="cMtaiWoFjzHMu9E-Ogl5-30">
          <mxGeometry relative="1" as="geometry" />
        </mxCell>
        <mxCell id="cMtaiWoFjzHMu9E-Ogl5-24" value="检查库存" style="rhombus;whiteSpace=wrap;html=1;fontSize=14;fillColor=#7A7A7A;strokeColor=none;fontColor=#FFFFFF;rounded=0;shadow=0;gradientColor=none;" vertex="1" parent="cMtaiWoFjzHMu9E-Ogl5-14">
          <mxGeometry x="183" y="10" width="133" height="80" as="geometry" />
        </mxCell>
        <mxCell id="cMtaiWoFjzHMu9E-Ogl5-30" value="安排发货" style="whiteSpace=wrap;html=1;fontSize=14;fillColor=#7A7A7A;strokeColor=none;fontColor=#FFFFFF;rounded=0;shadow=0;gradientColor=none;" vertex="1" parent="cMtaiWoFjzHMu9E-Ogl5-14">
          <mxGeometry x="397" y="27.25" width="120" height="45.5" as="geometry" />
        </mxCell>
        <mxCell id="cMtaiWoFjzHMu9E-Ogl5-33" value="有" style="text;html=1;strokeColor=none;fillColor=none;align=center;verticalAlign=middle;whiteSpace=wrap;rounded=0;shadow=0;fontSize=14;fontColor=#FFFFFF;" vertex="1" parent="cMtaiWoFjzHMu9E-Ogl5-14">
          <mxGeometry x="322" y="51" width="60" height="30" as="geometry" />
        </mxCell>
        <mxCell id="cMtaiWoFjzHMu9E-Ogl5-36" value="物流配送" style="whiteSpace=wrap;html=1;fontSize=14;fillColor=#7A7A7A;strokeColor=none;fontColor=#FFFFFF;rounded=0;shadow=0;gradientColor=none;" vertex="1" parent="cMtaiWoFjzHMu9E-Ogl5-14">
          <mxGeometry x="568" y="27.75" width="120" height="45" as="geometry" />
        </mxCell>
        <mxCell id="cMtaiWoFjzHMu9E-Ogl5-6" value="" style="swimlane;horizontal=0;fillColor=#00CCCC;swimlaneFillColor=#666666;shadow=0;gradientColor=none;strokeColor=none;" vertex="1" parent="1">
          <mxGeometry x="80" y="150" width="720" height="100" as="geometry" />
        </mxCell>
        <mxCell id="cMtaiWoFjzHMu9E-Ogl5-7" value="消&lt;br&gt;费&lt;br&gt;者" style="text;html=1;strokeColor=none;fillColor=none;align=center;verticalAlign=middle;whiteSpace=wrap;rounded=0;fontSize=14;fontColor=#FFFFFF;" vertex="1" parent="cMtaiWoFjzHMu9E-Ogl5-6">
          <mxGeometry x="-19" y="43" width="60" height="30" as="geometry" />
        </mxCell>
        <mxCell id="cMtaiWoFjzHMu9E-Ogl5-20" value="&lt;font color=&quot;#ffffff&quot;&gt;网络下单&lt;/font&gt;" style="rounded=1;whiteSpace=wrap;html=1;shadow=0;fontSize=14;fontColor=#333333;strokeColor=#666666;fillColor=#7A7A7A;" vertex="1" parent="cMtaiWoFjzHMu9E-Ogl5-6">
          <mxGeometry x="55" y="32" width="120" height="45" as="geometry" />
        </mxCell>
        <mxCell id="cMtaiWoFjzHMu9E-Ogl5-38" value="客户签收" style="rounded=1;whiteSpace=wrap;html=1;shadow=0;fontFamily=Helvetica;fontSize=14;fontColor=#FFFFFF;align=center;strokeColor=none;fillColor=#7A7A7A;gradientColor=none;" vertex="1" parent="cMtaiWoFjzHMu9E-Ogl5-6">
          <mxGeometry x="568" y="32" width="120" height="45" as="geometry" />
        </mxCell>
        <mxCell id="cMtaiWoFjzHMu9E-Ogl5-10" value="" style="swimlane;horizontal=0;fillColor=#009900;swimlaneFillColor=#666666;shadow=0;gradientColor=none;strokeColor=none;" vertex="1" parent="1">
          <mxGeometry x="80" y="257" width="720" height="100" as="geometry" />
        </mxCell>
        <mxCell id="cMtaiWoFjzHMu9E-Ogl5-11" value="销&lt;br&gt;售&lt;br&gt;部&lt;br&gt;门" style="text;html=1;strokeColor=none;fillColor=none;align=center;verticalAlign=middle;whiteSpace=wrap;rounded=0;fontSize=14;fontColor=#FFFFFF;" vertex="1" parent="cMtaiWoFjzHMu9E-Ogl5-10">
          <mxGeometry x="-20" y="40" width="60" height="30" as="geometry" />
        </mxCell>
        <mxCell id="cMtaiWoFjzHMu9E-Ogl5-21" value="订单确认" style="rounded=0;whiteSpace=wrap;html=1;shadow=0;fontSize=14;fontColor=#FFFFFF;strokeColor=none;fillColor=#7A7A7A;gradientColor=none;" vertex="1" parent="cMtaiWoFjzHMu9E-Ogl5-10">
          <mxGeometry x="55" y="27.5" width="120" height="45" as="geometry" />
        </mxCell>
        <mxCell id="cMtaiWoFjzHMu9E-Ogl5-28" value="取消订单" style="rounded=0;whiteSpace=wrap;html=1;shadow=0;fontSize=14;fontColor=#FFFFFF;strokeColor=none;fillColor=#7A7A7A;gradientColor=none;" vertex="1" parent="cMtaiWoFjzHMu9E-Ogl5-10">
          <mxGeometry x="397" y="27.5" width="120" height="45" as="geometry" />
        </mxCell>
        <mxCell id="cMtaiWoFjzHMu9E-Ogl5-32" value="无" style="text;html=1;strokeColor=none;fillColor=none;align=center;verticalAlign=middle;whiteSpace=wrap;rounded=0;shadow=0;fontSize=14;fontColor=#FFFFFF;" vertex="1" parent="cMtaiWoFjzHMu9E-Ogl5-10">
          <mxGeometry x="279" y="50" width="60" height="30" as="geometry" />
        </mxCell>
        <mxCell id="cMtaiWoFjzHMu9E-Ogl5-18" value="" style="swimlane;horizontal=0;fillColor=#660000;swimlaneFillColor=#666666;shadow=0;gradientColor=none;strokeColor=none;" vertex="1" parent="1">
          <mxGeometry x="80" y="470" width="720" height="100" as="geometry" />
        </mxCell>
        <mxCell id="cMtaiWoFjzHMu9E-Ogl5-19" value="财&lt;br&gt;务&lt;br&gt;部&lt;br&gt;门" style="text;html=1;strokeColor=none;fillColor=none;align=center;verticalAlign=middle;whiteSpace=wrap;rounded=0;fontSize=14;fontColor=#FFFFFF;" vertex="1" parent="cMtaiWoFjzHMu9E-Ogl5-18">
          <mxGeometry x="-20" y="40" width="60" height="30" as="geometry" />
        </mxCell>
        <mxCell id="cMtaiWoFjzHMu9E-Ogl5-34" value="处理付款" style="whiteSpace=wrap;html=1;fontSize=14;fillColor=#7A7A7A;strokeColor=none;fontColor=#FFFFFF;rounded=0;shadow=0;gradientColor=none;" vertex="1" parent="cMtaiWoFjzHMu9E-Ogl5-18">
          <mxGeometry x="568" y="23" width="120" height="45" as="geometry" />
        </mxCell>
        <mxCell id="cMtaiWoFjzHMu9E-Ogl5-22" style="edgeStyle=orthogonalEdgeStyle;rounded=0;orthogonalLoop=1;jettySize=auto;html=1;entryX=0.5;entryY=0;entryDx=0;entryDy=0;fontSize=14;fontColor=#FFFFFF;strokeColor=#FFFFFF;" edge="1" parent="1" source="cMtaiWoFjzHMu9E-Ogl5-20" target="cMtaiWoFjzHMu9E-Ogl5-21">
          <mxGeometry relative="1" as="geometry" />
        </mxCell>
        <mxCell id="cMtaiWoFjzHMu9E-Ogl5-27" style="edgeStyle=orthogonalEdgeStyle;rounded=0;orthogonalLoop=1;jettySize=auto;html=1;entryX=0;entryY=0.5;entryDx=0;entryDy=0;fontSize=14;fontColor=#FFFFFF;strokeColor=#FFFFFF;exitX=0.5;exitY=1;exitDx=0;exitDy=0;" edge="1" parent="1" source="cMtaiWoFjzHMu9E-Ogl5-21" target="cMtaiWoFjzHMu9E-Ogl5-24">
          <mxGeometry relative="1" as="geometry" />
        </mxCell>
        <mxCell id="cMtaiWoFjzHMu9E-Ogl5-29" value="" style="edgeStyle=orthogonalEdgeStyle;rounded=0;orthogonalLoop=1;jettySize=auto;html=1;exitX=0.5;exitY=0;exitDx=0;exitDy=0;entryX=0;entryY=0.5;entryDx=0;entryDy=0;fontSize=14;fontColor=#FFFFFF;strokeColor=#FFFFFF;" edge="1" parent="1" source="cMtaiWoFjzHMu9E-Ogl5-24" target="cMtaiWoFjzHMu9E-Ogl5-28">
          <mxGeometry relative="1" as="geometry" />
        </mxCell>
        <mxCell id="cMtaiWoFjzHMu9E-Ogl5-35" value="" style="edgeStyle=orthogonalEdgeStyle;rounded=0;orthogonalLoop=1;jettySize=auto;html=1;fontSize=14;fontColor=#FFFFFF;strokeColor=#FFFFFF;entryX=0;entryY=0.5;entryDx=0;entryDy=0;" edge="1" parent="1" source="cMtaiWoFjzHMu9E-Ogl5-30" target="cMtaiWoFjzHMu9E-Ogl5-34">
          <mxGeometry relative="1" as="geometry">
            <Array as="points">
              <mxPoint x="552" y="516" />
            </Array>
          </mxGeometry>
        </mxCell>
        <mxCell id="cMtaiWoFjzHMu9E-Ogl5-37" value="" style="edgeStyle=orthogonalEdgeStyle;rounded=0;orthogonalLoop=1;jettySize=auto;html=1;fontSize=14;fontColor=#FFFFFF;strokeColor=#FFFFFF;" edge="1" parent="1" source="cMtaiWoFjzHMu9E-Ogl5-34" target="cMtaiWoFjzHMu9E-Ogl5-36">
          <mxGeometry relative="1" as="geometry" />
        </mxCell>
        <mxCell id="cMtaiWoFjzHMu9E-Ogl5-39" value="" style="edgeStyle=orthogonalEdgeStyle;rounded=0;orthogonalLoop=1;jettySize=auto;html=1;fontSize=14;fontColor=#FFFFFF;strokeColor=#FFFFFF;" edge="1" parent="1" source="cMtaiWoFjzHMu9E-Ogl5-36" target="cMtaiWoFjzHMu9E-Ogl5-38">
          <mxGeometry relative="1" as="geometry" />
        </mxCell>
      </root>
    </mxGraphModel>
  </diagram>
</mxfile>
